{
  "version": "1.1.5",
  "modules": [
    {
      "id": 0,
      "plugin": "Valley",
      "version": "1.0.1",
      "model": "Topograph",
      "params": [
        {
          "id": 0,
          "value": 0.591000378
        },
        {
          "id": 1,
          "value": 0.0
        },
        {
          "id": 2,
          "value": 0.0
        },
        {
          "id": 3,
          "value": 0.0
        },
        {
          "id": 4,
          "value": 0.0
        },
        {
          "id": 5,
          "value": 0.497413695
        },
        {
          "id": 6,
          "value": 0.5
        },
        {
          "id": 7,
          "value": 0.799500048
        },
        {
          "id": 8,
          "value": 0.349500567
        },
        {
          "id": 9,
          "value": 0.582000077
        }
      ],
      "leftModuleId": 19,
      "data": {
        "sequencerMode": 0,
        "triggerOutputMode": 0,
        "accOutputMode": 0,
        "extClockResolution": 0,
        "chaosKnobMode": 0,
        "runMode": 0,
        "panelStyle": 0,
        "running": 1
      },
      "pos": [
        14,
        0
      ]
    },
    {
      "id": 1,
      "plugin": "Core",
      "version": "1.1.5",
      "model": "AudioInterface",
      "params": [],
      "leftModuleId": 8,
      "data": {
        "audio": {
          "driver": 6,
          "deviceName": "Speaker/HP (Realtek High Definition Audio)",
          "offset": 0,
          "maxChannels": 8,
          "sampleRate": 48000,
          "blockSize": 1024
        }
      },
      "pos": [
        51,
        0
      ]
    },
    {
      "id": 2,
      "plugin": "Southpole",
      "version": "1.0.0.2019.10",
      "model": "Piste",
      "params": [
        {
          "id": 0,
          "value": -0.137999877
        },
        {
          "id": 1,
          "value": 0.372000009
        },
        {
          "id": 2,
          "value": 0.813500643
        },
        {
          "id": 3,
          "value": 1.0
        },
        {
          "id": 4,
          "value": 0.615499914
        },
        {
          "id": 5,
          "value": 0.351999909
        },
        {
          "id": 6,
          "value": 0.307500035
        }
      ],
      "leftModuleId": 16,
      "pos": [
        14,
        1
      ]
    },
    {
      "id": 3,
      "plugin": "Southpole",
      "version": "1.0.0.2019.10",
      "model": "Abr",
      "params": [
        {
          "id": 0,
          "value": 1.0
        },
        {
          "id": 1,
          "value": 0.0
        },
        {
          "id": 2,
          "value": 1.0
        },
        {
          "id": 3,
          "value": 1.0
        },
        {
          "id": 4,
          "value": 1.0
        },
        {
          "id": 5,
          "value": 0.0
        },
        {
          "id": 6,
          "value": 0.0
        },
        {
          "id": 7,
          "value": 0.0
        }
      ],
      "rightModuleId": 18,
      "data": {
        "swStates": [
          true,
          false,
          true,
          true,
          true,
          false,
          false,
          false
        ]
      },
      "pos": [
        32,
        0
      ]
    },
    {
      "id": 4,
      "plugin": "Autodafe-DrumKit",
      "version": "1.0.0",
      "model": "DrumsSnare",
      "params": [
        {
          "id": 0,
          "value": 0.0
        }
      ],
      "rightModuleId": 6,
      "data": {
        "sampletype": 1
      },
      "pos": [
        20,
        1
      ]
    },
    {
      "id": 5,
      "plugin": "Autodafe-DrumKit",
      "version": "1.0.0",
      "model": "DrumsHiHatOpen",
      "params": [
        {
          "id": 0,
          "value": 0.0
        }
      ],
      "rightModuleId": 7,
      "data": {
        "sampletype": 1
      },
      "pos": [
        30,
        1
      ]
    },
    {
      "id": 6,
      "plugin": "Southpole",
      "version": "1.0.0.2019.10",
      "model": "Piste",
      "params": [
        {
          "id": 0,
          "value": 0.225000128
        },
        {
          "id": 1,
          "value": 0.844499707
        },
        {
          "id": 2,
          "value": 0.786500156
        },
        {
          "id": 3,
          "value": 1.0
        },
        {
          "id": 4,
          "value": 0.145999998
        },
        {
          "id": 5,
          "value": 1.0
        },
        {
          "id": 6,
          "value": 0.0
        }
      ],
      "leftModuleId": 4,
      "pos": [
        24,
        1
      ]
    },
    {
      "id": 7,
      "plugin": "Southpole",
      "version": "1.0.0.2019.10",
      "model": "Piste",
      "params": [
        {
          "id": 0,
          "value": 0.431999892
        },
        {
          "id": 1,
          "value": 0.0
        },
        {
          "id": 2,
          "value": 0.73450017
        },
        {
          "id": 3,
          "value": 1.0
        },
        {
          "id": 4,
          "value": 0.286999255
        },
        {
          "id": 5,
          "value": 1.0
        },
        {
          "id": 6,
          "value": 0.0
        }
      ],
      "leftModuleId": 5,
      "pos": [
        34,
        1
      ]
    },
    {
      "id": 8,
      "plugin": "NYSTHI",
      "version": "1.0.6",
      "model": "PlateVerb",
      "params": [
        {
          "id": 0,
          "value": 0.699999988
        },
        {
          "id": 1,
          "value": 0.200000003
        },
        {
          "id": 2,
          "value": 0.5
        },
        {
          "id": 3,
          "value": 0.0
        },
        {
          "id": 4,
          "value": 0.0
        },
        {
          "id": 5,
          "value": 0.0
        },
        {
          "id": 6,
          "value": 0.0
        },
        {
          "id": 7,
          "value": 0.899999976
        },
        {
          "id": 8,
          "value": 0.475499958
        },
        {
          "id": 9,
          "value": 0.300000012
        },
        {
          "id": 10,
          "value": 0.499500036
        },
        {
          "id": 11,
          "value": 0.5
        },
        {
          "id": 12,
          "value": 0.0
        }
      ],
      "leftModuleId": 18,
      "rightModuleId": 1,
      "pos": [
        44,
        0
      ]
    },
    {
      "id": 9,
      "plugin": "Southpole",
      "version": "1.0.0.2019.10",
      "model": "Piste",
      "params": [
        {
          "id": 0,
          "value": 0.50399977
        },
        {
          "id": 1,
          "value": 0.0
        },
        {
          "id": 2,
          "value": 0.815500021
        },
        {
          "id": 3,
          "value": 1.0
        },
        {
          "id": 4,
          "value": 0.200000212
        },
        {
          "id": 5,
          "value": 1.0
        },
        {
          "id": 6,
          "value": 0.0
        }
      ],
      "leftModuleId": 10,
      "pos": [
        47,
        1
      ]
    },
    {
      "id": 10,
      "plugin": "Autodafe-DrumKit",
      "version": "1.0.0",
      "model": "DrumsHiHatClosed",
      "params": [
        {
          "id": 0,
          "value": 0.0
        }
      ],
      "leftModuleId": 13,
      "rightModuleId": 9,
      "data": {
        "sampletype": 1
      },
      "pos": [
        43,
        1
      ]
    },
    {
      "id": 11,
      "plugin": "AS",
      "version": "1.0.3",
      "model": "BPMClock",
      "params": [
        {
          "id": 0,
          "value": 120.0
        },
        {
          "id": 1,
          "value": 1.0
        },
        {
          "id": 2,
          "value": 2.0
        },
        {
          "id": 3,
          "value": 0.0
        },
        {
          "id": 4,
          "value": 0.0
        },
        {
          "id": 5,
          "value": 0.0
        }
      ],
      "rightModuleId": 12,
      "data": {
        "run": [
          1
        ]
      },
      "pos": [
        0,
        0
      ]
    },
    {
      "id": 12,
      "plugin": "Southpole",
      "version": "1.0.0.2019.10",
      "model": "Fuse",
      "params": [
        {
          "id": 0,
          "value": 0.0
        },
        {
          "id": 1,
          "value": 0.0
        },
        {
          "id": 2,
          "value": 0.0
        },
        {
          "id": 3,
          "value": 0.0
        }
      ],
      "leftModuleId": 11,
      "rightModuleId": 19,
      "data": {
        "gateMode": false
      },
      "pos": [
        6,
        0
      ]
    },
    {
      "id": 13,
      "plugin": "Bogaudio",
      "version": "1.1.22",
      "model": "Bogaudio-Offset",
      "params": [
        {
          "id": 0,
          "value": 0.0
        },
        {
          "id": 1,
          "value": 0.59800142
        }
      ],
      "rightModuleId": 10,
      "data": {
        "disableOutputLimit": false
      },
      "pos": [
        40,
        1
      ]
    },
    {
      "id": 14,
      "plugin": "Autodafe-DrumKit",
      "version": "1.0.0",
      "model": "DrumsKick",
      "params": [
        {
          "id": 0,
          "value": 0.0
        }
      ],
      "rightModuleId": 15,
      "data": {
        "sampletype": 1
      },
      "pos": [
        0,
        1
      ]
    },
    {
      "id": 15,
      "plugin": "Southpole",
      "version": "1.0.0.2019.10",
      "model": "Piste",
      "params": [
        {
          "id": 0,
          "value": -0.224999994
        },
        {
          "id": 1,
          "value": 0.0
        },
        {
          "id": 2,
          "value": 1.0
        },
        {
          "id": 3,
          "value": 1.0
        },
        {
          "id": 4,
          "value": 0.731000364
        },
        {
          "id": 5,
          "value": 1.0
        },
        {
          "id": 6,
          "value": 0.180000186
        }
      ],
      "leftModuleId": 14,
      "pos": [
        4,
        1
      ]
    },
    {
      "id": 16,
      "plugin": "Autodafe-DrumKit",
      "version": "1.0.0",
      "model": "DrumsClaps",
      "params": [
        {
          "id": 0,
          "value": 0.0
        }
      ],
      "rightModuleId": 2,
      "data": {
        "sampletype": 1
      },
      "pos": [
        10,
        1
      ]
    },
    {
      "id": 17,
      "plugin": "Fundamental",
      "version": "1.3.1",
      "model": "Scope",
      "params": [
        {
          "id": 0,
          "value": 0.0
        },
        {
          "id": 1,
          "value": 0.0
        },
        {
          "id": 2,
          "value": 0.0
        },
        {
          "id": 3,
          "value": 0.0
        },
        {
          "id": 4,
          "value": 13.5249987
        },
        {
          "id": 5,
          "value": 0.0
        },
        {
          "id": 6,
          "value": 0.0
        },
        {
          "id": 7,
          "value": 0.0
        }
      ],
      "data": {
        "lissajous": 0,
        "external": 0
      },
      "pos": [
        53,
        1
      ]
    },
    {
      "id": 18,
      "plugin": "cf",
      "version": "1.1.0",
      "model": "MONO",
      "params": [
        {
          "id": 0,
          "value": 0.0
        },
        {
          "id": 1,
          "value": 1.83000004
        },
        {
          "id": 2,
          "value": 0.0
        },
        {
          "id": 3,
          "value": 0.0
        }
      ],
      "leftModuleId": 3,
      "rightModuleId": 8,
      "data": {
        "solostate": 0,
        "onstate": 1
      },
      "pos": [
        38,
        0
      ]
    },
    {
      "id": 19,
      "plugin": "Southpole",
      "version": "1.0.0.2019.10",
      "model": "Fuse",
      "params": [
        {
          "id": 0,
          "value": 0.0
        },
        {
          "id": 1,
          "value": 0.0
        },
        {
          "id": 2,
          "value": 0.0
        },
        {
          "id": 3,
          "value": 0.0
        }
      ],
      "leftModuleId": 12,
      "rightModuleId": 0,
      "data": {
        "gateMode": false
      },
      "pos": [
        10,
        0
      ]
    }
  ],
  "cables": [
    {
      "id": 0,
      "outputModuleId": 2,
      "outputId": 2,
      "inputModuleId": 3,
      "inputId": 9,
      "color": "#0c8e15"
    },
    {
      "id": 1,
      "outputModuleId": 0,
      "outputId": 0,
      "inputModuleId": 2,
      "inputId": 3,
      "color": "#0986ad"
    },
    {
      "id": 2,
      "outputModuleId": 0,
      "outputId": 3,
      "inputModuleId": 2,
      "inputId": 4,
      "color": "#c9b70e"
    },
    {
      "id": 3,
      "outputModuleId": 0,
      "outputId": 1,
      "inputModuleId": 4,
      "inputId": 0,
      "color": "#c91847"
    },
    {
      "id": 4,
      "outputModuleId": 0,
      "outputId": 2,
      "inputModuleId": 5,
      "inputId": 0,
      "color": "#0c8e15"
    },
    {
      "id": 5,
      "outputModuleId": 7,
      "outputId": 2,
      "inputModuleId": 3,
      "inputId": 11,
      "color": "#0986ad"
    },
    {
      "id": 6,
      "outputModuleId": 6,
      "outputId": 2,
      "inputModuleId": 3,
      "inputId": 10,
      "color": "#c9b70e"
    },
    {
      "id": 7,
      "outputModuleId": 0,
      "outputId": 1,
      "inputModuleId": 6,
      "inputId": 3,
      "color": "#c91847"
    },
    {
      "id": 8,
      "outputModuleId": 0,
      "outputId": 2,
      "inputModuleId": 7,
      "inputId": 3,
      "color": "#0c8e15"
    },
    {
      "id": 9,
      "outputModuleId": 4,
      "outputId": 0,
      "inputModuleId": 6,
      "inputId": 0,
      "color": "#0986ad"
    },
    {
      "id": 10,
      "outputModuleId": 5,
      "outputId": 0,
      "inputModuleId": 7,
      "inputId": 0,
      "color": "#c9b70e"
    },
    {
      "id": 11,
      "outputModuleId": 0,
      "outputId": 5,
      "inputModuleId": 7,
      "inputId": 4,
      "color": "#c91847"
    },
    {
      "id": 12,
      "outputModuleId": 0,
      "outputId": 4,
      "inputModuleId": 6,
      "inputId": 4,
      "color": "#0c8e15"
    },
    {
      "id": 13,
      "outputModuleId": 8,
      "outputId": 1,
      "inputModuleId": 1,
      "inputId": 1,
      "color": "#0986ad"
    },
    {
      "id": 14,
      "outputModuleId": 8,
      "outputId": 0,
      "inputModuleId": 1,
      "inputId": 0,
      "color": "#c9b70e"
    },
    {
      "id": 15,
      "outputModuleId": 11,
      "outputId": 2,
      "inputModuleId": 10,
      "inputId": 0,
      "color": "#c91847"
    },
    {
      "id": 16,
      "outputModuleId": 9,
      "outputId": 2,
      "inputModuleId": 3,
      "inputId": 12,
      "color": "#0c8e15"
    },
    {
      "id": 17,
      "outputModuleId": 10,
      "outputId": 0,
      "inputModuleId": 9,
      "inputId": 0,
      "color": "#0986ad"
    },
    {
      "id": 18,
      "outputModuleId": 11,
      "outputId": 2,
      "inputModuleId": 9,
      "inputId": 3,
      "color": "#c9b70e"
    },
    {
      "id": 19,
      "outputModuleId": 11,
      "outputId": 1,
      "inputModuleId": 9,
      "inputId": 4,
      "color": "#c91847"
    },
    {
      "id": 20,
      "outputModuleId": 11,
      "outputId": 2,
      "inputModuleId": 0,
      "inputId": 0,
      "color": "#0c8e15"
    },
    {
      "id": 21,
      "outputModuleId": 11,
      "outputId": 0,
      "inputModuleId": 12,
      "inputId": 4,
      "color": "#0986ad"
    },
    {
      "id": 22,
      "outputModuleId": 12,
      "outputId": 3,
      "inputModuleId": 0,
      "inputId": 5,
      "color": "#c9b70e"
    },
    {
      "id": 23,
      "outputModuleId": 12,
      "outputId": 3,
      "inputModuleId": 0,
      "inputId": 6,
      "color": "#c91847"
    },
    {
      "id": 24,
      "outputModuleId": 12,
      "outputId": 3,
      "inputModuleId": 0,
      "inputId": 7,
      "color": "#0c8e15"
    },
    {
      "id": 25,
      "outputModuleId": 13,
      "outputId": 0,
      "inputModuleId": 9,
      "inputId": 7,
      "color": "#0986ad"
    },
    {
      "id": 26,
      "outputModuleId": 7,
      "outputId": 0,
      "inputModuleId": 13,
      "inputId": 2,
      "color": "#c9b70e"
    },
    {
      "id": 27,
      "outputModuleId": 16,
      "outputId": 0,
      "inputModuleId": 2,
      "inputId": 0,
      "color": "#c91847"
    },
    {
      "id": 28,
      "outputModuleId": 0,
      "outputId": 0,
      "inputModuleId": 16,
      "inputId": 0,
      "color": "#0c8e15"
    },
    {
      "id": 29,
      "outputModuleId": 11,
      "outputId": 0,
      "inputModuleId": 14,
      "inputId": 0,
      "color": "#0986ad"
    },
    {
      "id": 30,
      "outputModuleId": 15,
      "outputId": 2,
      "inputModuleId": 3,
      "inputId": 8,
      "color": "#c9b70e"
    },
    {
      "id": 31,
      "outputModuleId": 14,
      "outputId": 0,
      "inputModuleId": 15,
      "inputId": 0,
      "color": "#c91847"
    },
    {
      "id": 32,
      "outputModuleId": 18,
      "outputId": 3,
      "inputModuleId": 17,
      "inputId": 0,
      "color": "#0c8e15"
    },
    {
      "id": 33,
      "outputModuleId": 11,
      "outputId": 0,
      "inputModuleId": 15,
      "inputId": 3,
      "color": "#0986ad"
    },
    {
      "id": 34,
      "outputModuleId": 3,
      "outputId": 9,
      "inputModuleId": 18,
      "inputId": 8,
      "color": "#c9b70e"
    },
    {
      "id": 35,
      "outputModuleId": 18,
      "outputId": 2,
      "inputModuleId": 8,
      "inputId": 1,
      "color": "#c91847"
    },
    {
      "id": 36,
      "outputModuleId": 18,
      "outputId": 1,
      "inputModuleId": 8,
      "inputId": 0,
      "color": "#0c8e15"
    },
    {
      "id": 37,
      "outputModuleId": 19,
      "outputId": 3,
      "inputModuleId": 15,
      "inputId": 7,
      "color": "#0986ad"
    },
    {
      "id": 38,
      "outputModuleId": 11,
      "outputId": 0,
      "inputModuleId": 19,
      "inputId": 4,
      "color": "#c9b70e"
    },
    {
      "id": 39,
      "outputModuleId": 11,
      "outputId": 4,
      "inputModuleId": 12,
      "inputId": 5,
      "color": "#c91847"
    },
    {
      "id": 40,
      "outputModuleId": 11,
      "outputId": 4,
      "inputModuleId": 19,
      "inputId": 5,
      "color": "#0c8e15"
    },
    {
      "id": 41,
      "outputModuleId": 11,
      "outputId": 4,
      "inputModuleId": 0,
      "inputId": 1,
      "color": "#0986ad"
    },
    {
      "id": 43,
      "outputModuleId": 8,
      "outputId": 0,
      "inputModuleId": 17,
      "inputId": 1,
      "color": "#ff9941"
    }
  ]
}